<mxfile host="app.diagrams.net" modified="2023-12-02T08:05:07.395Z" agent="Mozilla/5.0 (Windows NT 10.0; Win64; x64) AppleWebKit/537.36 (KHTML, like Gecko) Chrome/119.0.0.0 Safari/537.36" etag="KQOQEIvaDb_uI2JytMIv" version="22.1.5" type="github">
  <diagram id="R2lEEEUBdFMjLlhIrx00" name="Page-1">
    <mxGraphModel dx="1050" dy="534" grid="1" gridSize="10" guides="1" tooltips="1" connect="1" arrows="1" fold="1" page="1" pageScale="1" pageWidth="850" pageHeight="1100" math="0" shadow="0" extFonts="Permanent Marker^https://fonts.googleapis.com/css?family=Permanent+Marker">
      <root>
        <mxCell id="0" />
        <mxCell id="1" parent="0" />
        <mxCell id="e2z9AnGuoBhqK3iURth1-1" value="" style="whiteSpace=wrap;html=1;aspect=fixed;" vertex="1" parent="1">
          <mxGeometry x="195.38" y="100" width="460" height="460" as="geometry" />
        </mxCell>
        <mxCell id="e2z9AnGuoBhqK3iURth1-2" value="Manage Room Information (Change,fix,add room)" style="ellipse;whiteSpace=wrap;html=1;" vertex="1" parent="1">
          <mxGeometry x="290" y="210" width="277.5" height="60" as="geometry" />
        </mxCell>
        <mxCell id="e2z9AnGuoBhqK3iURth1-5" value="Room Management System" style="text;html=1;strokeColor=none;fillColor=none;align=center;verticalAlign=middle;whiteSpace=wrap;rounded=0;fontSize=21;fontStyle=1" vertex="1" parent="1">
          <mxGeometry x="300" y="120" width="285" height="70" as="geometry" />
        </mxCell>
        <mxCell id="e2z9AnGuoBhqK3iURth1-6" value="Create report" style="ellipse;whiteSpace=wrap;html=1;" vertex="1" parent="1">
          <mxGeometry x="290" y="410" width="270" height="60" as="geometry" />
        </mxCell>
        <mxCell id="e2z9AnGuoBhqK3iURth1-7" value="Check Room Information" style="ellipse;whiteSpace=wrap;html=1;" vertex="1" parent="1">
          <mxGeometry x="286" y="300" width="278.75" height="60" as="geometry" />
        </mxCell>
      </root>
    </mxGraphModel>
  </diagram>
</mxfile>
